<?xml version="1.0" encoding="UTF-8"?>
<svg id="_レイヤー_1" data-name="レイヤー 1" xmlns="http://www.w3.org/2000/svg" viewBox="0 0 1024 384">
  <defs>
    <style>
      .cls-1 {
        fill: #0080ff;
      }
    </style>
  </defs>
  <rect class="cls-1" x="0" y="0" width="1024" height="384" rx="192" ry="192"/>
  <path d="M264.36,340.58C149.69,409.39,2.29,329.02.03,195.31,0,194.21,0,193.1,0,192H0C0,85.96,85.96,0,192,0h264.81c105.4,0,143.85,138.81,53.47,193.03h0s-245.91,147.55-245.91,147.55Z"/>
  <g>
    <path class="cls-1" d="M106.26,157.31c0-7.94-.26-11.9-1.15-17.66,5.12.26,8.32.38,17.54.38h24.96c15.75,0,27.39,3.84,35.71,11.9,9.34,9.09,14.21,22.4,14.21,39.17s-5.12,31.49-14.98,41.09c-8.45,8.06-19.71,11.9-34.82,11.9h-25.09c-8.7,0-12.16.13-17.41.38.77-5.5,1.02-9.47,1.02-17.67v-69.51ZM146.07,225.54c9.47,0,15.87-2.3,20.74-7.42,5.76-6.02,8.83-15.23,8.83-26.62s-2.69-20.1-8.19-25.73c-4.86-4.99-11.26-7.17-21.51-7.17h-18.56v66.95h18.69Z"/>
    <path class="cls-1" d="M272.53,204.67c-6.53,0-9.09.13-12.93.64v-19.33c4.74.64,7.55.77,16,.77h8.45c6.14,0,10.62-.13,15.87-.64-.64,4.86-.9,8.83-.9,16.64v13.95c0,8.32.13,12.03.9,17.67-8.45,5.12-13.44,7.3-20.74,9.22-6.14,1.66-13.7,2.69-20.48,2.69-16.51,0-29.83-5.38-38.4-15.36-7.81-9.34-12.29-23.81-12.29-39.55,0-21.76,8.96-39.04,24.58-47.62,7.17-4.1,16-6.02,26.5-6.02,12.93,0,24.06,4.22,31.75,11.9,4.35,4.48,6.66,8.32,9.34,15.74l-21.63,5.38c-2.05-5.89-3.97-8.7-7.68-11.14-3.58-2.43-7.81-3.46-13.82-3.46-7.04,0-13.57,2.56-18.05,7.17-5.89,6.14-8.96,15.62-8.96,28.16s2.94,22.14,8.45,28.42c4.61,5.25,11.52,7.94,20.48,7.94,7.68,0,13.7-1.54,20.1-5.25v-17.92h-6.53Z"/>
    <path class="cls-1" d="M383.64,174.46c-1.28-4.61-2.3-7.04-4.22-9.73-3.84-5.63-9.98-8.45-17.92-8.45-7.3,0-13.57,2.43-18.05,7.17-5.89,6.14-9.09,16-9.09,28.29,0,22.4,10.37,35.97,27.52,35.97,8.06,0,14.72-3.07,18.69-8.7,2.05-3.07,3.07-5.76,3.97-11.39l22.27,3.58c-2.56,10.24-4.99,15.62-9.6,21.12-7.55,9.09-19.97,13.95-35.2,13.95s-27.01-4.61-35.33-13.18c-9.34-9.6-14.46-24.32-14.46-41.22s5.5-32,15.87-41.99c8.32-7.94,19.71-12.03,33.54-12.03,16,0,28.42,5.5,36.48,16.13,3.71,4.86,5.63,8.96,7.42,15.87l-21.89,4.61Z"/>
  </g>
  <rect x="696.96" y="63.94" width="256" height="256.12"/>
  <g>
    <path d="M824.96,319.94c70.65,0,128-57.35,128-128s-57.35-128-128-128-128,57.35-128,128,57.35,128,128,128ZM824.96,298.6c-58.98,0-106.67-47.69-106.67-106.67s47.69-106.67,106.67-106.67,106.67,47.69,106.67,106.67-47.69,106.67-106.67,106.67Z"/>
    <path d="M759.32,205.49h65.51c4.89,0,8.78-3.76,8.78-8.78v-84.58c0-4.89-3.89-8.66-8.78-8.66s-8.66,3.76-8.66,8.66v75.92h-56.85c-5.02,0-8.78,3.76-8.78,8.66s3.76,8.78,8.78,8.78Z"/>
  </g>
</svg>