<?xml version="1.0" encoding="UTF-8"?>
<svg id="_レイヤー_1" data-name="レイヤー 1" xmlns="http://www.w3.org/2000/svg" viewBox="0 0 1024 384">
  <defs>
    <style>
      .cls-1 {
        fill: #0080ff;
      }
    </style>
  </defs>
  <rect class="cls-1" x="0" y="0" width="1024" height="384" rx="192" ry="192"/>
  <path d="M264.36,340.58C149.69,409.39,2.29,329.02.03,195.31,0,194.21,0,193.1,0,192H0C0,85.96,85.96,0,192,0h264.81c105.4,0,143.85,138.81,53.47,193.03h0s-245.91,147.55-245.91,147.55Z"/>
  <g>
    <path class="cls-1" d="M106.75,242.69c-.64-4.35-2.43-10.37-5.5-18.05l-15.62-39.81c-1.54-3.97-3.33-9.86-6.02-19.46.77,12.42,1.02,17.54,1.02,20.74v37.25c0,8.96.26,14.21,1.02,19.33h-21.38c.77-5.38,1.02-10.62,1.02-19.33v-65.28c0-8.06-.26-14.08-1.02-19.46h28.42c.77,4.74,2.3,10.11,4.74,16.51l22.79,59.65,22.66-59.65c2.56-6.53,3.97-11.65,4.74-16.51h28.42c-.77,6.14-1.02,10.88-1.02,19.46v65.28c0,9.6.26,14.46,1.02,19.33h-21.38c.77-5.76,1.02-10.37,1.02-19.33v-37.63c0-3.07.26-8.19,1.02-20.35q-.64,2.43-2.05,8.06c-.64,2.18-2.82,9.09-3.58,11.01l-16.13,40.32c-2.56,6.66-4.86,13.82-5.5,17.92h-18.69Z"/>
    <path class="cls-1" d="M210.56,166.91c-.77,4.86-1.02,9.6-1.02,18.05v39.68c0,7.55.26,12.67,1.02,18.05h-22.66c.77-6.4,1.02-10.37,1.02-17.92v-39.94c0-7.81-.26-12.67-1.02-17.92h22.66ZM210.43,138.62v17.67h-22.27v-17.67h22.27Z"/>
    <path class="cls-1" d="M276.86,193.41c-1.15-3.97-1.92-5.63-3.46-7.55-2.94-3.71-7.04-5.5-12.16-5.5-11.65,0-18.56,9.09-18.56,24.19s7.3,24.58,18.94,24.58c5.76,0,10.62-2.3,13.44-6.53,1.28-1.66,1.79-3.2,2.56-6.27l19.46,3.46c-1.66,5.12-3.07,8.19-5.5,11.65-6.53,9.22-17.02,13.95-30.72,13.95-11.39,0-21.25-3.58-27.78-10.24-7.04-7.17-11.01-18.18-11.01-30.34s4.1-23.04,11.26-30.21c6.78-6.78,16.26-10.37,27.52-10.37,13.7,0,24.45,5.25,30.85,15.1,1.92,2.94,2.94,5.38,4.48,9.86l-19.33,4.22Z"/>
    <path class="cls-1" d="M361.09,186.62c-5.38-1.79-7.81-2.18-11.9-2.18-6.78,0-11.78,1.92-15.36,6.02-2.69,3.2-3.84,6.14-4.48,12.16v22.15c0,7.68.26,12.42.9,17.92h-22.02c.77-6.4,1.02-10.37,1.02-17.92v-39.94c0-8.58-.26-12.54-1.02-17.92h21.12v10.5c5.38-8.06,13.57-11.9,24.96-11.9,3.84,0,6.53.26,12.03,1.41l-5.25,19.71Z"/>
    <path class="cls-1" d="M371.71,204.8c0-24.71,15.62-40.45,40.07-40.45s39.94,15.62,39.94,40.19-15.87,40.71-40.07,40.71-39.94-15.74-39.94-40.45ZM392.06,204.54c0,15.1,7.42,24.32,19.71,24.32s19.58-8.96,19.58-23.94-7.17-24.45-19.46-24.45-19.84,9.09-19.84,24.07Z"/>
  </g>
  <g>
    <path d="M651.46,225.22c0,7.3.26,12.42,1.02,17.92h-23.55c.77-5.5,1.02-10.5,1.02-17.92v-67.33h-16.26c-7.68,0-13.18.26-18.3.9v-20.61c5.12.64,10.75.9,18.18.9h53.25c8.96,0,14.08-.26,19.33-.9v20.61c-5.25-.64-10.11-.9-19.33-.9h-15.36v67.33Z"/>
    <path d="M718.14,167.36c-.77,4.86-1.02,9.6-1.02,18.05v39.68c0,7.55.26,12.67,1.02,18.05h-22.66c.77-6.4,1.02-10.37,1.02-17.92v-39.94c0-7.81-.26-12.67-1.02-17.92h22.66ZM718.02,139.07v17.67h-22.27v-17.67h22.27Z"/>
    <path d="M732.86,243.14c.77-5.63,1.02-10.5,1.02-17.92v-39.94c0-8.83-.26-13.18-1.02-17.92h21.12v4.86q-.13,2.18-.13,2.3,0,1.28-.13,1.79c6.78-7.68,13.83-10.75,24.19-10.75,7.17,0,12.8,1.92,16.9,5.63,1.79,1.54,2.94,2.94,4.74,6.02,7.17-8.19,14.72-11.65,25.6-11.65,9.22,0,16.51,2.94,20.99,8.58,3.84,4.74,5.5,10.62,5.5,19.46v31.62c0,7.55.26,12.29.9,17.92h-22.27c.77-5.76,1.02-9.86,1.02-17.92v-27.65c0-5.38-.64-8.06-2.18-10.37-1.66-2.43-4.74-3.84-8.45-3.84-4.61,0-8.7,1.79-11.9,5.25-2.69,2.82-4.1,5.12-6.02,10.62v25.99c0,7.42.26,12.03.9,17.92h-22.27c.77-5.5,1.02-10.11,1.02-17.92v-27.65c0-5.25-.77-8.19-2.56-10.5-1.66-2.3-4.61-3.58-7.81-3.58-4.22,0-8.58,2.05-12.03,5.63-2.43,2.56-3.84,4.86-6.02,10.11v25.99c0,7.42.26,11.9.9,17.92h-22.02Z"/>
    <path d="M884.29,210.75c.64,6.02,1.79,9.22,4.35,12.42,3.46,4.22,8.45,6.4,14.59,6.4,8.96,0,15.11-4.22,17.79-12.03l18.56,5.5c-2.82,6.14-4.74,9.09-8.19,12.42-6.79,6.78-16.51,10.37-28.16,10.37s-21.12-3.46-27.78-10.11c-7.3-7.17-11.26-18.05-11.26-30.46,0-24.32,15.23-40.45,38.27-40.45,16.77,0,28.93,8.19,34.43,22.91,2.3,6.27,2.94,10.37,3.46,19.97,0,.51,0,.64.26,3.07h-56.32ZM920.13,195.9c-.77-4.1-1.66-6.4-3.58-8.96-3.07-3.97-7.94-6.14-13.83-6.14-9.47,0-15.62,5.12-18.05,15.1h35.46Z"/>
  </g>
</svg>