<?xml version="1.0" encoding="UTF-8"?>
<svg id="_レイヤー_1" data-name="レイヤー 1" xmlns="http://www.w3.org/2000/svg" viewBox="0 0 1920 1080">
  <defs>
    <style>
      .cls-1 {
        fill: #0080ff;
      }
    </style>
  </defs>
  <rect class="cls-1" x="0" y="0" width="1920" height="1080"/>
  <polygon points="0 1080 0 540 0 0 1920 0 0 1080"/>
  <g>
    <path class="cls-1" d="M190.16,635.04c-1.2-8.16-4.56-19.44-10.32-33.84l-29.28-74.64c-2.88-7.44-6.24-18.48-11.28-36.48,1.44,23.28,1.92,32.88,1.92,38.88v69.84c0,16.8.48,26.64,1.92,36.24h-40.08c1.44-10.08,1.92-19.92,1.92-36.24v-122.41c0-15.12-.48-26.4-1.92-36.48h53.28c1.44,8.88,4.32,18.96,8.88,30.96l42.72,111.85,42.48-111.85c4.8-12.24,7.44-21.84,8.88-30.96h53.28c-1.44,11.52-1.92,20.4-1.92,36.48v122.41c0,18,.48,27.12,1.92,36.24h-40.08c1.44-10.8,1.92-19.44,1.92-36.24v-70.56c0-5.76.48-15.36,1.92-38.16q-1.2,4.56-3.84,15.12c-1.2,4.08-5.28,17.04-6.72,20.64l-30.24,75.6c-4.8,12.48-9.12,25.92-10.32,33.6h-35.04Z"/>
    <path class="cls-1" d="M384.8,492.96c-1.44,9.12-1.92,18-1.92,33.84v74.4c0,14.16.48,23.76,1.92,33.84h-42.48c1.44-12,1.92-19.44,1.92-33.6v-74.88c0-14.64-.48-23.76-1.92-33.6h42.48ZM384.56,439.91v33.12h-41.76v-33.12h41.76Z"/>
    <path class="cls-1" d="M509.12,542.64c-2.16-7.44-3.6-10.56-6.48-14.16-5.52-6.96-13.2-10.32-22.8-10.32-21.84,0-34.8,17.04-34.8,45.36s13.68,46.08,35.52,46.08c10.8,0,19.92-4.32,25.2-12.24,2.4-3.12,3.36-6,4.8-11.76l36.48,6.48c-3.12,9.6-5.76,15.36-10.32,21.84-12.24,17.28-31.92,26.16-57.6,26.16-21.36,0-39.84-6.72-52.08-19.2-13.2-13.44-20.64-34.08-20.64-56.88s7.68-43.2,21.12-56.64c12.72-12.72,30.48-19.44,51.6-19.44,25.68,0,45.84,9.84,57.84,28.32,3.6,5.52,5.52,10.08,8.4,18.48l-36.24,7.92Z"/>
    <path class="cls-1" d="M667.04,529.92c-10.08-3.36-14.64-4.08-22.32-4.08-12.72,0-22.08,3.6-28.8,11.28-5.04,6-7.2,11.52-8.4,22.8v41.52c0,14.4.48,23.28,1.68,33.6h-41.28c1.44-12,1.92-19.44,1.92-33.6v-74.88c0-16.08-.48-23.52-1.92-33.6h39.6v19.68c10.08-15.12,25.44-22.32,46.8-22.32,7.2,0,12.24.48,22.56,2.64l-9.84,36.96Z"/>
    <path class="cls-1" d="M686.95,564c0-46.32,29.28-75.84,75.12-75.84s74.88,29.28,74.88,75.36-29.76,76.32-75.12,76.32-74.88-29.52-74.88-75.84ZM725.12,563.52c0,28.32,13.92,45.6,36.96,45.6s36.72-16.8,36.72-44.88-13.44-45.84-36.48-45.84-37.2,17.04-37.2,45.12Z"/>
  </g>
  <g>
    <path d="M1241.48,602.28c0,13.68.48,23.28,1.92,33.6h-44.16c1.44-10.32,1.92-19.68,1.92-33.6v-126.25h-30.48c-14.4,0-24.72.48-34.32,1.68v-38.64c9.6,1.2,20.16,1.68,34.08,1.68h99.85c16.8,0,26.4-.48,36.24-1.68v38.64c-9.84-1.2-18.96-1.68-36.24-1.68h-28.8v126.25Z"/>
    <path d="M1366.52,493.8c-1.44,9.12-1.92,18-1.92,33.84v74.4c0,14.16.48,23.76,1.92,33.84h-42.48c1.44-12,1.92-19.44,1.92-33.6v-74.88c0-14.64-.48-23.76-1.92-33.6h42.48ZM1366.28,440.75v33.12h-41.76v-33.12h41.76Z"/>
    <path d="M1394.12,635.88c1.44-10.56,1.92-19.68,1.92-33.6v-74.88c0-16.56-.48-24.72-1.92-33.6h39.6v9.12q-.24,4.08-.24,4.32,0,2.4-.24,3.36c12.72-14.4,25.92-20.16,45.36-20.16,13.44,0,24,3.6,31.68,10.56,3.36,2.88,5.52,5.52,8.88,11.28,13.44-15.36,27.6-21.84,48-21.84,17.28,0,30.96,5.52,39.36,16.08,7.2,8.88,10.32,19.92,10.32,36.48v59.28c0,14.16.48,23.04,1.68,33.6h-41.76c1.44-10.8,1.92-18.48,1.92-33.6v-51.84c0-10.08-1.2-15.12-4.08-19.44-3.12-4.56-8.88-7.2-15.84-7.2-8.64,0-16.32,3.36-22.32,9.84-5.04,5.28-7.68,9.6-11.28,19.92v48.72c0,13.92.48,22.56,1.68,33.6h-41.76c1.44-10.32,1.92-18.96,1.92-33.6v-51.84c0-9.84-1.44-15.36-4.8-19.68-3.12-4.32-8.64-6.72-14.64-6.72-7.92,0-16.08,3.84-22.56,10.56-4.56,4.8-7.2,9.12-11.28,18.96v48.72c0,13.92.48,22.32,1.68,33.6h-41.28Z"/>
    <path d="M1678.04,575.16c1.2,11.28,3.36,17.28,8.16,23.28,6.48,7.92,15.84,12,27.36,12,16.8,0,28.32-7.92,33.36-22.56l34.8,10.32c-5.28,11.52-8.88,17.04-15.36,23.28-12.72,12.72-30.96,19.44-52.8,19.44s-39.6-6.48-52.08-18.96c-13.68-13.44-21.12-33.84-21.12-57.12,0-45.6,28.56-75.84,71.76-75.84,31.44,0,54.24,15.36,64.56,42.96,4.32,11.76,5.52,19.44,6.48,37.44,0,.96,0,1.2.48,5.76h-105.6ZM1745.24,547.32c-1.44-7.68-3.12-12-6.72-16.8-5.76-7.44-14.88-11.52-25.92-11.52-17.76,0-29.28,9.6-33.84,28.32h66.48Z"/>
  </g>
</svg>